<svg xmlns="http://www.w3.org/2000/svg" width="840" height="144" viewBox="0 0 840 144"><defs><clipPath id="a"><path transform="rotate(-180 524 40)" fill="none" stroke="#dadce0" stroke-miterlimit="10" d="M496 20h56v40h-56z"/></clipPath><clipPath id="b"><circle cx="564" cy="110" r="8" fill="none"/></clipPath><clipPath id="c"><path fill="none" stroke="#dadce0" stroke-miterlimit="10" d="M636 20h40v36h-40z"/></clipPath><clipPath id="d"><circle cx="199.996" cy="79.996" r="16" fill="none"/></clipPath></defs><path fill="#fff" stroke="#dadce0" stroke-linejoin="round" d="M260 16h80v56h-80zM288 20v48M300 20v48M336 44h-72"/><circle cx="282" cy="38" r="3" fill="#fff" stroke="#dadce0" stroke-linejoin="round"/><circle cx="306" cy="62" r="3" fill="#fff" stroke="#dadce0" stroke-linejoin="round"/><circle cx="294" cy="50" r="3" fill="#ea4335"/><circle cx="282" cy="62" r="3" fill="#ea4335"/><path d="M318.181 52.048l1.275.769a.35.35 0 0 0 .522-.38l-.338-1.45a.35.35 0 0 1 .112-.345l1.126-.976a.35.35 0 0 0-.2-.614l-1.482-.126a.351.351 0 0 1-.293-.212l-.58-1.369a.35.35 0 0 0-.646 0l-.58 1.369a.35.35 0 0 1-.293.212l-1.483.126a.35.35 0 0 0-.2.614l1.127.976a.35.35 0 0 1 .112.345l-.338 1.45a.35.35 0 0 0 .522.38l1.275-.77a.35.35 0 0 1 .362 0z" fill="#fbbc04"/><path fill="none" d="M315 47h6v6h-6z"/><path fill="#fff" stroke="#dadce0" stroke-linejoin="round" d="M312 20v48M336 56h-72M276 20v48M324 20v48M336 32h-72"/><g stroke="#dadce0" stroke-miterlimit="10"><path d="M340 38h-72a8 8 0 0 1-8-8V16h80z" fill="#fff"/><path d="M344 38a8 8 0 0 0 8-8h-76a8 8 0 0 1-8 8z" fill="#dadce0"/><path d="M276 30a8 8 0 0 1-16 0" fill="none"/></g><path fill="#ea4335" stroke="#ea4335" stroke-linejoin="round" d="M260 12h80v6h-80z"/><g fill="none" stroke="#b31412"><path d="M280 11a4 4 0 0 0-8 0" stroke-linecap="square" stroke-miterlimit="10"/><path d="M276 15a4 4 0 1 0-4-4" stroke-linecap="round" stroke-linejoin="round"/></g><g fill="none" stroke="#b31412"><path d="M328 11a4 4 0 0 0-8 0" stroke-linecap="square" stroke-miterlimit="10"/><path d="M324 15a4 4 0 1 0-4-4" stroke-linecap="round" stroke-linejoin="round"/></g><g fill="none" stroke="#dadce0" stroke-linejoin="round"><path d="M612 128l16-16h48l16 16M628 112l16 16"/></g><path d="M648.246 123a43.96 43.96 0 0 1-4.938-2.013c-1.867-.951-3.515-2.835-3.287-4.93a4.548 4.548 0 0 1 2.778-3.48 8.733 8.733 0 0 1 4.564-.481c4.366.522 8.345 2.712 12.58 3.904 0 0 9.057 4 22.057 0" fill="none" stroke="#4285f4" stroke-linecap="round" stroke-miterlimit="10" stroke-dasharray="4.034"/><g fill="#fff" stroke="#dadce0" stroke-linejoin="round"><path d="M652 128l20-20h60l20 20M672 108l20 20"/></g><path d="M710 106.057a9.598 9.598 0 0 1 5.886-.94 8.729 8.729 0 0 1 5.102 2.694 8.15 8.15 0 0 1 1.904 4.123 5.924 5.924 0 0 1-.134 2.83 6.774 6.774 0 0 1-3.509 3.624 20.14 20.14 0 0 1-5.273 1.612" fill="none" stroke="#4285f4" stroke-linecap="round" stroke-miterlimit="10" stroke-dasharray="4.116"/><circle cx="700" cy="118" r="7" fill="#fff" stroke="#4285f4" stroke-miterlimit="10"/><circle cx="700" cy="118" r="4" fill="#4285f4"/><path d="M700 78a13.998 13.998 0 0 0-14 14c0 8.5 5.513 11.822 10.217 19.099 2.836 4.401 1.987 7.033 3.783 7.033 1.842 0 1.02-2.632 3.862-7.027C708.559 103.822 714 100.5 714 92a13.998 13.998 0 0 0-14-14z" fill="#ea4335"/><path d="M692 85h16v16h-16z" fill="none"/><path d="M702.667 89v5.333h2v5.334H706V86.333c-1.84 0-3.333 1.494-3.333 2.667zm-3.334 2H698v-4.667h-1.333V91h-1.334v-4.667H694V91a2.666 2.666 0 0 0 2.667 2.667v6H698v-6A2.666 2.666 0 0 0 700.667 91v-4.667h-1.334z" fill="#fff"/><g fill="#fff" stroke="#dadce0" stroke-miterlimit="10"><path d="M492 64V16h64v48z"/><path stroke-width=".854" d="M496 60V20h56v40zM492 16l4 4M496 60l-4 4M556 64l-4-4M552 20l4-4"/></g><g clip-path="url(#a)"><path fill="none" stroke="#ea8600" stroke-miterlimit="10" d="M525 40h-2l-2 20h6l-2-20z"/><path d="M516.206 44.57l.217 3.285a17.219 17.219 0 0 1-8.012 1.215 16.67 16.67 0 0 1 6.272-7.138A16.669 16.669 0 0 1 524 40.07a17.218 17.218 0 0 1-5.058 6.331z" fill="#137333"/><path d="M513.608 34.08l-3.62 2.39a23.142 23.142 0 0 1-6.773-8.39 22.429 22.429 0 0 1 12.393 2.535A22.429 22.429 0 0 1 524 40.08a23.142 23.142 0 0 1-10.652-1.67zM534.392 34.08l.26 4.329A23.142 23.142 0 0 1 524 40.079a22.429 22.429 0 0 1 8.392-9.464 22.429 22.429 0 0 1 12.393-2.536 23.142 23.142 0 0 1-6.774 8.39z" fill="#34a853"/><path d="M531.794 44.57l-2.736 1.831A17.218 17.218 0 0 1 524 40.07a16.669 16.669 0 0 1 9.317 1.862 16.67 16.67 0 0 1 6.271 7.138 17.219 17.219 0 0 1-8.011-1.214z" fill="#137333"/><circle cx="525.785" cy="42" r="2" fill="#ea8600"/><circle cx="524" cy="40" r="3" fill="#fbbc04"/><path fill="none" stroke="#ea8600" stroke-miterlimit="10" d="M523.785 51h-2M527 57h-3"/></g><path fill="none" stroke="#dadce0" stroke-miterlimit="10" d="M552 60h-56V20h56z"/><rect x="548" y="92" width="56" height="36" rx="4" fill="#4285f4" stroke="#4285f4" stroke-miterlimit="10"/><g clip-path="url(#b)"><path d="M564 112a4 4 0 0 1 4 4v4h-8v-4a4 4 0 0 1 4-4z" fill="none" stroke="#fff" stroke-linecap="round" stroke-linejoin="round"/><circle cx="564" cy="108" r="2" fill="#fff"/></g><circle cx="564" cy="110" r="8" fill="none" stroke="#fff" stroke-miterlimit="10"/><g fill="none" stroke="#fff" stroke-linecap="round" stroke-miterlimit="10"><path d="M580 104h20M580 108h20M580 112h20M580 116h10"/></g><path fill="none" stroke="#fff" stroke-linecap="round" stroke-linejoin="round" d="M557 99h-4v4M553 117v4h4M571 121h4v-4M575 103v-4h-4"/><path fill="#fff" stroke="#dadce0" stroke-linejoin="round" d="M120 52h120v76H120z"/><path fill="#fff" stroke="#dadce0" stroke-linejoin="round" d="M108 124h144v4H108zM124 56h112v60H124z"/><g><path d="M513.969 102.304A15.996 15.996 0 0 1 528 94a4 4 0 0 0 4-4 4 4 0 0 0-4-4 15.996 15.996 0 0 1-14.031-8.304M326.031 77.696A15.996 15.996 0 0 1 312 86a4 4 0 0 0-4 4 4 4 0 0 0 4 4 15.996 15.996 0 0 1 14.031 8.304" fill="#fff" stroke="#5f6368" stroke-miterlimit="10"/><path d="M400 90a20 20 0 0 1 40 0" fill="none" stroke="#5f6368" stroke-miterlimit="10"/><circle cx="361.995" cy="90" r="38" fill="#fff" stroke="#5f6368" stroke-miterlimit="10"/><circle cx="478" cy="90" r="38" fill="#fff" stroke="#5f6368" stroke-miterlimit="10"/><circle cx="361.997" cy="90.003" r="34" fill="#fff" stroke="#5f6368" stroke-miterlimit="10"/><circle cx="478" cy="90" r="34" fill="#fff" stroke="#5f6368" stroke-miterlimit="10"/><circle cx="312" cy="90" r="1" fill="#5f6368"/><circle cx="528" cy="90" r="1" fill="#5f6368"/></g><path fill="none" stroke="#dadce0" stroke-linecap="round" stroke-miterlimit="10" d="M456 128h-72M764 128H504"/><g fill="none" stroke="#dadce0" stroke-linecap="round" stroke-linejoin="round"><path d="M786.778 90.496c-12.045-24.813-3.941-54.542-3.941-54.542a97.183 97.183 0 0 1 25.184 11.603M836 4a110.52 110.52 0 0 0-14.383 18.789l11.797 11.797a2 2 0 1 1-2.828 2.828l-11.07-11.07a98.49 98.49 0 0 0-7.054 15.29l20.952 20.952a2 2 0 1 1-2.828 2.828l-19.512-19.512a70.734 70.734 0 0 0-3.054 19.29l25.394 25.394a2 2 0 1 1-2.828 2.828l-22.368-22.368a75.23 75.23 0 0 0 4.304 19.45M830.583 109a36.02 36.02 0 0 0-44.837-14.062l11.648 11.648a2 2 0 1 1-2.828 2.828l-12.579-12.578A35.977 35.977 0 0 0 764 128"/></g><path fill="none" stroke="#dadce0" stroke-linecap="round" stroke-miterlimit="10" d="M76 128V40H48v68M48 32V16H20v40M4 64h28v64M336 128H76"/><path fill="#dadce0" d="M54 104h16v20H54z"/><path fill="none" stroke="#dadce0" stroke-linecap="round" stroke-miterlimit="10" d="M24 56h20"/><rect x="28" y="24" width="12" height="24" rx="6" fill="#dadce0"/><path fill="none" stroke="#dadce0" stroke-linecap="round" stroke-miterlimit="10" d="M52 48h20M52 56h20"/><path fill="none" stroke="#dadce0" stroke-linecap="round" stroke-linejoin="round" d="M12 72h12v56H12z"/><g fill="#fff" stroke="#dadce0" stroke-miterlimit="10"><path d="M564 16h60v32h-60z"/><path stroke-width=".854" d="M568 20h52v24h-52zM624 16l-4 4M568 20l-4-4M564 48l4-4M620 44l4 4"/></g><path fill="#fff" stroke="#dadce0" stroke-linejoin="round" d="M228 124h32"/><g fill="none" stroke="#5f6368" stroke-linecap="round" stroke-miterlimit="10"><path d="M368 68l16 16M352 68l32 32"/></g><g fill="none" stroke="#5f6368" stroke-linecap="round" stroke-miterlimit="10"><path d="M488 68l16 16M472 68l32 32"/></g><g fill="#ea4335"><path d="M167.978 52.312a.609.609 0 0 0-.528.022l-9.343 5.018a.608.608 0 0 0-.299.693l.819 3.054 1.696 6.33.458 1.71a4.15 4.15 0 0 0-2.197.014c-1.782.477-2.944 1.915-2.597 3.21s2.073 1.96 3.854 1.482 2.945-1.914 2.598-3.21l-.943-3.52-1.447-5.4 8.243-4.428 1.53 5.711.458 1.71a4.15 4.15 0 0 0-2.196.014c-1.782.477-2.945 1.915-2.598 3.21s2.073 1.96 3.855 1.482 2.944-1.915 2.597-3.21l-.943-3.52-1.927-7.192-.745-2.779a.608.608 0 0 0-.345-.401zm-8.252 8.197l-.62-2.314 8.243-4.428.62 2.314zM152.487 48.887l-2.577-4.462a.607.607 0 0 0-1.112.146l-2.973 11.094a4.15 4.15 0 0 0-1.91-1.086c-1.781-.478-3.507.186-3.854 1.482s.816 2.733 2.597 3.21 3.508-.186 3.855-1.481l3.078-11.489 1.844 3.193a.607.607 0 0 0 1.051-.607z"/></g><rect x="228" y="76" width="32" height="52" rx="6" fill="#fff" stroke="#dadce0" stroke-linecap="round" stroke-miterlimit="10"/><g><g fill="none" stroke="#dadce0" stroke-linecap="round" stroke-miterlimit="10"><path d="M281 94v-6M288.071 96.929l4.243-4.243M291 104h6"/></g><path d="M260 90h-16a8 8 0 0 0 0 16v6l6-6h10a8 8 0 0 0 0-16z" fill="#fff" stroke="#dadce0" stroke-miterlimit="10"/><rect x="255" y="98" width="32" height="16" rx="8" fill="#34a853"/><path fill="#34a853" d="M279 114h-6l6 6v-6z"/><circle cx="263" cy="106" r="2" fill="#137333"/><circle cx="271" cy="106" r="2" fill="#137333"/><circle cx="279" cy="106" r="2" fill="#137333"/></g><g><g fill="#fff" stroke="#dadce0" stroke-miterlimit="10"><path d="M632 16h48v44h-48z"/><path stroke-width=".854" d="M636 20h40v36h-40zM680 16l-4 4M636 20l-4-4M632 60l4-4M676 56l4 4"/></g><g clip-path="url(#c)"><path fill="none" stroke="#ea8600" stroke-miterlimit="10" d="M642 62h28"/><path fill="#34a853" d="M654 32h4v12h-4z"/><path d="M646 40h20a4 4 0 0 1 4 4v24h-28V44a4 4 0 0 1 4-4z" fill="#ea8600"/><path d="M665.103 50.403a2.794 2.794 0 0 0-4.206 0l-.382.437a6 6 0 0 1-9.03 0l-.382-.437a2.794 2.794 0 0 0-4.206 0 2.794 2.794 0 0 1-4.897-1.84V44a4 4 0 0 1 4-4h20a4 4 0 0 1 4 4v4.563a2.794 2.794 0 0 1-4.897 1.84z" fill="#fbbc04"/><circle cx="653" cy="43" r="1" fill="#fff"/><path fill="none" stroke="#fff" stroke-miterlimit="10" d="M663 45l3.25-3.25M645.75 44l3.25 3.25"/><circle cx="659" cy="47" r="1" fill="#fff"/><path d="M658 28.71v.078a2.01 2.01 0 1 1-4 0v-.078a7.77 7.77 0 0 1 2-4.71 7.77 7.77 0 0 1 2 4.71z" fill="#fbbc04"/></g><path fill="none" stroke="#dadce0" stroke-miterlimit="10" d="M636 20h40v36h-40z"/></g><g><path fill="none" stroke="#dadce0" stroke-linecap="round" stroke-miterlimit="10" d="M228 108h-96"/><path fill="none" stroke="#ea4335" stroke-linecap="round" stroke-miterlimit="10" d="M132 108h14"/><circle cx="146" cy="108" r="2" fill="#ea4335"/></g><g fill="none" stroke="#dadce0" stroke-linecap="round" stroke-miterlimit="10"><path d="M164 100a16 16 0 0 0-16-16h-4M164 100a12 12 0 0 1 12-12M156 96a4 4 0 0 1 4 4M168 100a4 4 0 0 1 4-4"/></g><g><path d="M199.985 95.5a15.514 15.514 0 1 1 4.022-.532 15.516 15.516 0 0 1-4.022.532z" fill="#fff"/><path d="M200.007 64.992a15.029 15.029 0 1 1-3.893.515 15.016 15.016 0 0 1 3.893-.515m0-1a16.002 16.002 0 1 0 15.444 11.863 16.028 16.028 0 0 0-15.445-11.863z" fill="#5f6368"/><g clip-path="url(#d)"><g fill="none" stroke="#5f6368" stroke-miterlimit="10"><path d="M199.996 79.996l-17.821-4.69M199.996 79.996l-13.088 12.973M199.996 79.996l13.088-12.972M217.817 84.686l-17.821-4.69M203.989 94.899l-7.986-29.806"/></g><path fill="#5f6368" d="M200.97 63.762l-1.479-5.519-5.855-1.981-4.08 4.643 1.479 5.519 5.855 1.981 4.08-4.643zM187.882 76.735l-1.479-5.52-5.855-1.981-4.08 4.643 1.479 5.52 5.855 1.98 4.08-4.642zM192.615 94.397l-1.479-5.519-5.855-1.981-4.081 4.643 1.479 5.519 5.855 1.981 4.081-4.643zM218.792 68.452l-1.479-5.519-5.855-1.981-4.081 4.643 1.479 5.52 5.855 1.98 4.081-4.643zM223.524 86.115l-1.479-5.52-5.855-1.98-4.08 4.643 1.479 5.519 5.855 1.981 4.08-4.643zM210.436 99.087l-1.479-5.519-5.855-1.981-4.08 4.643 1.479 5.52 5.855 1.98 4.08-4.643zM205.703 81.425l-1.479-5.52-5.855-1.981-4.08 4.643 1.479 5.52 5.855 1.981 4.08-4.643z"/></g></g><path fill="none" stroke="#dadce0" stroke-linecap="round" stroke-linejoin="round" d="M236 80h16"/><g fill="#fff" stroke="#dadce0" stroke-miterlimit="10"><path d="M688 16h36v32h-36z"/><path stroke-width=".854" d="M692 20h28v24h-28zM724 16l-4 4M692 20l-4-4M688 48l4-4M720 44l4 4"/></g></svg>